<svg width="48" height="48" viewBox="0 0 48 48" fill="none" xmlns="http://www.w3.org/2000/svg">
<path fill-rule="evenodd" clip-rule="evenodd" d="M24 0C37.246 0 48 10.754 48 24C48 37.246 37.246 48 24 48C10.754 48 0 37.246 0 24C0 10.754 10.754 0 24 0ZM9.274 37.528C12.93 41.506 18.176 44 24 44H24.008L14.772 28.004L9.274 37.528ZM41.32 34H22.854L28.352 43.524C33.886 42.294 38.56 38.768 41.32 34ZM4.918 18C4.322 19.894 4 21.91 4 24C4 27.646 4.978 31.066 6.686 34.01L12.464 24.004L12.462 24L12.468 23.996L15.93 18H4.918ZM41.324 14.006L32.09 30H43.082C43.678 28.106 44 26.09 44 24C44 20.36 43.026 16.948 41.324 14.006ZM27.47 18H20.548L17.082 24.004L20.544 30H27.472L30.934 24.002L27.47 18ZM33.244 20.002L38.738 10.486C35.082 6.502 29.834 4.002 24.006 4L33.244 20.002ZM19.66 4.474C14.122 5.7 9.442 9.228 6.68 14H25.16L19.66 4.474Z" fill="white"/>
</svg>
