<svg width="44" height="48" viewBox="0 0 44 48" fill="none" xmlns="http://www.w3.org/2000/svg">
<path fill-rule="evenodd" clip-rule="evenodd" d="M38 4V0H0V42H4V4H38ZM8 48V8.038H44V48H8ZM33.2411 31.0544L33.352 31.08C36.0194 31.6965 36.0117 33.0504 35.998 35.4517L35.998 35.4527C35.997 35.6294 35.996 35.8118 35.996 36H16.004C16.004 35.8115 16.003 35.6288 16.002 35.4518V35.4518V35.4517C15.9883 33.0504 15.9806 31.6965 18.648 31.08L18.8223 31.0398C21.565 30.4071 24.1924 29.8011 22.89 27.398C18.946 20.124 21.766 16 26 16C30.152 16 33.042 19.972 29.11 27.398C27.8347 29.8065 30.4177 30.4027 33.2411 31.0544ZM40 40H11.908V12H40V40Z" fill="white"/>
</svg>
